#!OML:ASF E:\motion texture\Top Level 1\Subject 1\Session 1\male.ASF
:FULLY-SPECIFIED
:DEGREES
785
root -50.1897 17.6979 2.89293 -10.4173 -81.0823 14.0422
lowerback -1.39027 -4.17513 -5.46885
upperback -4.08399 -5.61337 2.89737
thorax -2.64236 -2.64448 6.08384
lowerneck -14.1724 -6.32938 -11.1376
upperneck 16.0844 -8.4427 10.7293
head 8.26176 -3.77285 4.42687
rclavicle -1.0635e-014 1.11319e-014
rhumerus -30.8325 1.69087 -86.3642
rradius 25.7606
rwrist 19.76
rhand -10.8473 -24.8749
rfingers 7.12502
rthumb 15.1676 -54.299
lclavicle -1.0635e-014 1.11319e-014
lhumerus 124.45 -57.0433 -4.92995
lradius 68.8856
lwrist -22.9169
lhand -17.5173 1.51737
lfingers 7.12502
lthumb 8.73614 31.3166
rfemur -29.9408 -11.9496 15.7359
rtibia 46.2245
rfoot -6.4639 -13.4854
rtoes 26.9276
lfemur 0.775982 -6.45935 -24.1532
ltibia 19.4439
lfoot -16.7443 -8.17078
ltoes -1.5929
786
root -50.306 17.6836 2.86404 -11.2107 -81.0185 14.92
lowerback -1.38203 -4.09968 -5.55275
upperback -4.10849 -5.51476 2.85422
thorax -2.68376 -2.591 6.08976
lowerneck -14.1133 -6.50042 -11.1743
upperneck 16.2314 -8.73677 10.8997
head 8.3454 -3.90269 4.45424
rclavicle -4.73604e-014 -3.18055e-015
rhumerus -30.8325 1.69087 -86.3642
rradius 25.7606
rwrist 19.76
rhand -10.8473 -24.8749
rfingers 7.12502
rthumb 15.1676 -54.299
lclavicle -4.73604e-014 -3.18055e-015
lhumerus 124.45 -57.0433 -4.92995
lradius 68.8856
lwrist -22.9169
lhand -17.5173 1.51737
lfingers 7.12502
lthumb 8.73614 31.3166
rfemur -29.9408 -11.9496 15.7359
rtibia 46.2245
rfoot -6.4639 -13.4854
rtoes 26.9276
lfemur 0.944387 -6.50819 -24.1782
ltibia 19.7209
lfoot -16.9162 -8.17916
ltoes -2.2129
787
root -50.419 17.6721 2.83326 -11.2166 -80.9509 15.0543
lowerback -1.5049 -4.01922 -5.53737
upperback -4.10955 -5.40138 2.86196
thorax -2.63273 -2.53674 6.08127
lowerneck -14.0022 -6.70025 -11.2762
upperneck 16.3361 -9.05807 11.0691
head 8.41291 -4.05085 4.48862
rclavicle -4.76089e-014 3.18055e-014
rhumerus -30.8325 1.69087 -86.3642
rradius 25.7606
rwrist 19.76
rhand -10.8473 -24.8749
rfingers 7.12502
rthumb 15.1676 -54.299
lclavicle -4.76089e-014 3.18055e-014
lhumerus 124.45 -57.0433 -4.92995
lradius 68.8856
lwrist -22.9169
lhand -17.5173 1.51737
lfingers 7.12502
lthumb 8.73614 31.3166
rfemur -29.9408 -11.9496 15.7359
rtibia 46.2245
rfoot -6.4639 -13.4854
rtoes 26.9276
lfemur 0.998559 -6.59101 -24.0485
ltibia 20.0575
lfoot -17.0263 -8.23361
ltoes -2.62257
788
root -50.544 17.663 2.80881 -10.6967 -80.7877 14.5405
lowerback -1.62676 -3.98906 -5.3838
upperback -4.02334 -5.35132 2.87893
thorax -2.49236 -2.52245 5.99909
lowerneck -13.9728 -6.8735 -11.3511
upperneck 16.4005 -9.34486 11.284
head 8.47961 -4.1739 4.53653
rclavicle 2.13694e-015 -1.51076e-014
rhumerus -30.8325 1.69087 -86.3642
rradius 25.7606
rwrist 19.76
rhand -10.8473 -24.8749
rfingers 7.12502
rthumb 15.1676 -54.299
lclavicle 2.13694e-015 -1.51076e-014
lhumerus 124.45 -57.0433 -4.92995
lradius 68.8856
lwrist -22.9169
lhand -17.5173 1.51737
lfingers 7.12502
lthumb 8.73614 31.3166
rfemur -29.9408 -11.9496 15.7359
rtibia 46.2245
rfoot -6.4639 -13.4854
rtoes 26.9276
lfemur 1.25401 -6.74608 -23.925
ltibia 20.3375
lfoot -17.1221 -8.37703
ltoes -2.73524
789
root -50.6643 17.6521 2.77713 -10.9654 -80.6439 14.8815
lowerback -1.6742 -3.93419 -5.40793
upperback -4.00501 -5.27522 2.86663
thorax -2.45651 -2.48533 5.99659
lowerneck -13.8466 -7.02778 -11.4549
upperneck 16.419 -9.62021 11.5632
head 8.51795 -4.29182 4.61452
rclavicle 4.42296e-014 -6.36111e-015
rhumerus -30.8325 1.69087 -86.3642
rradius 25.7606
rwrist 19.76
rhand -10.8473 -24.8749
rfingers 7.12502
rthumb 15.1676 -54.299
lclavicle 4.42296e-014 -6.36111e-015
lhumerus 124.45 -57.0433 -4.92995
lradius 68.8856
lwrist -22.9169
lhand -17.5173 1.51737
lfingers 7.12502
lthumb 8.73614 31.3166
rfemur -29.9408 -11.9496 15.7359
rtibia 46.2245
rfoot -6.4639 -13.4854
rtoes 26.9276
lfemur 1.39448 -6.84011 -23.8782
ltibia 20.7087
lfoot -17.2473 -8.42958
ltoes -3.54305
790
root -50.7868 17.6434 2.74056 -10.9328 -80.5924 14.9328
lowerback -1.74833 -3.85669 -5.3867
upperback -4.03447 -5.16937 2.87477
thorax -2.46164 -2.43232 5.99126
lowerneck -13.8476 -7.23053 -11.497
upperneck 16.7016 -9.95247 11.6426
head 8.66199 -4.44456 4.60455
rclavicle 8.69683e-015 4.77083e-015
rhumerus -30.8325 1.69087 -86.3642
rradius 25.7606
rwrist 19.76
rhand -10.8473 -24.8749
rfingers 7.12502
rthumb 15.1676 -54.299
lclavicle 8.69683e-015 4.77083e-015
lhumerus 124.45 -57.0433 -4.92995
lradius 68.8856
lwrist -22.9169
lhand -17.5173 1.51737
lfingers 7.12502
lthumb 8.73614 31.3166
rfemur -29.9408 -11.9496 15.7359
rtibia 46.2245
rfoot -6.4639 -13.4854
rtoes 26.9276
lfemur 1.63732 -6.93183 -23.7164
ltibia 20.8653
lfoot -17.2521 -8.44086
ltoes -4.04828
791
root -50.9137 17.6357 2.70617 -9.88978 -80.4674 13.9105
lowerback -2.03648 -3.86281 -4.52108
upperback -3.92439 -5.16595 2.45712
thorax -2.29116 -2.46457 5.04279
lowerneck -13.8356 -7.32465 -11.188
upperneck 16.8467 -10.2873 12.0843
head 8.76072 -4.54882 4.66041
rclavicle 1.58531e-014 9.54166e-015
rhumerus -30.8325 1.69087 -86.3642
rradius 25.7606
rwrist 19.76
rhand -10.8473 -24.8749
rfingers 7.12502
rthumb 15.1676 -54.299
lclavicle 1.58531e-014 9.54166e-015
lhumerus 124.45 -57.0433 -4.92995
lradius 68.8856
lwrist -22.9169
lhand -17.5173 1.51737
lfingers 7.12502
lthumb 8.73614 31.3166
rfemur -29.9408 -11.9496 15.7359
rtibia 46.2245
rfoot -6.4639 -13.4854
rtoes 26.9276
lfemur 1.77452 -6.96769 -23.3736
ltibia 21.3115
lfoot -17.3407 -8.55028
ltoes -4.90543
